<?xml version="1.0" standalone="no"?><!DOCTYPE svg PUBLIC "-//W3C//DTD SVG 1.1//EN" "http://www.w3.org/Graphics/SVG/1.1/DTD/svg11.dtd"><svg class="icon" height="512" viewBox="0 0 1024 1024" version="1.1" xmlns="http://www.w3.org/2000/svg"><path d="M346.763636 46.545455C302.545455 46.545455 265.309091 72.145455 232.727273 90.763636c-2.327273 4.654545-9.309091 6.981818-13.963637 11.636364-93.090909 58.181818-86.109091 290.909091 72.145455 549.236364 137.309091 223.418182 302.545455 325.818182 397.963636 325.818181 23.272727 0 41.890909-4.654545 58.181818-16.290909 4.654545-2.327273 11.636364-6.981818 16.29091-9.309091 37.236364-20.945455 90.763636-51.2 100.072727-109.381818 6.981818-39.563636-4.654545-81.454545-41.890909-125.672727-48.872727-62.836364-90.763636-90.763636-137.309091-90.763636-37.236364 0-65.163636 18.618182-93.090909 34.909091l-2.327273 2.327272c-11.636364-6.981818-44.218182-32.581818-104.727273-132.654545-60.509091-100.072727-69.818182-139.636364-69.818182-153.6l2.327273-2.327273c67.490909-39.563636 121.018182-88.436364 53.527273-230.4C442.181818 79.127273 400.290909 46.545455 346.763636 46.545455z" fill="#8a8a8a" /></svg>